<?xml version="1.0" encoding="UTF-8"?>
<svg xmlns="http://www.w3.org/2000/svg" xmlns:xlink="http://www.w3.org/1999/xlink" width="1920" height="1080" viewBox="0 0 1920 1080">
<path fill-rule="nonzero" fill="rgb(4.705811%, 10.980225%, 16.078186%)" fill-opacity="1" d="M 1612.753906 780.707031 L 1612.753906 775.355469 L 1638.722656 745.421875 C 1641.5 742.121094 1642.886719 738.023438 1642.886719 733.132812 L 1642.886719 650.476562 L 1607.402344 650.476562 L 1607.402344 728.972656 C 1607.402344 737.035156 1606.875 742.714844 1605.816406 746.019531 C 1604.628906 749.71875 1601.855469 753.550781 1597.492188 757.515625 L 1521.175781 650.476562 L 1484.308594 650.476562 L 1484.308594 658.40625 L 1511.265625 694.878906 L 1511.265625 701.019531 L 1487.675781 729.765625 C 1485.03125 733.066406 1483.714844 737.167969 1483.714844 742.054688 L 1483.714844 846.914062 L 1542.785156 846.914062 L 1542.785156 815 L 1517.015625 815 L 1517.015625 744.628906 C 1517.015625 732.738281 1520.582031 723.421875 1527.71875 716.683594 L 1571.722656 778.921875 L 1617.316406 846.914062 L 1651.210938 846.914062 L 1651.210938 838.191406 Z M 1398.082031 751.964844 L 1429.402344 751.964844 L 1429.402344 650.476562 L 1362.203125 650.476562 L 1362.203125 683.976562 L 1393.71875 683.976562 L 1393.71875 693.09375 Z M 1295.597656 827.882812 C 1310.132812 813.613281 1317.40625 795.375 1317.40625 773.175781 L 1317.40625 650.476562 L 1282.914062 650.476562 L 1282.914062 777.140625 C 1282.914062 801.589844 1270.753906 813.808594 1246.441406 813.808594 L 1220.078125 813.808594 L 1220.078125 809.25 L 1233.359375 779.320312 L 1233.359375 650.476562 L 1199.460938 650.476562 L 1199.460938 813.808594 L 1153.078125 813.808594 L 1153.078125 650.476562 L 1118.390625 650.476562 L 1118.390625 846.914062 L 1251.199219 846.914062 C 1267.714844 846.914062 1282.519531 840.570312 1295.597656 827.882812 "/>
<path fill-rule="nonzero" fill="rgb(4.705811%, 10.980225%, 16.078186%)" fill-opacity="1" d="M 1039.570312 848.6875 L 1062.367188 848.6875 L 1062.367188 845.320312 L 1014.398438 777.328125 L 1014.398438 774.15625 L 1045.714844 743.433594 C 1047.960938 741.1875 1049.085938 737.289062 1049.085938 731.738281 L 1049.085938 652.449219 L 1025.300781 652.449219 L 1025.300781 721.035156 C 1025.300781 730.417969 1023.84375 737.617188 1020.9375 742.640625 C 1018.957031 745.945312 1013.339844 752.351562 1004.089844 761.867188 L 920.042969 652.25 L 894.671875 652.25 L 894.671875 654.234375 L 927.179688 696.652344 L 927.179688 699.425781 L 901.609375 728.167969 C 898.304688 731.871094 896.652344 735.96875 896.652344 740.460938 L 896.652344 848.6875 L 952.949219 848.6875 L 952.949219 828.074219 L 918.457031 828.074219 L 918.457031 751.957031 C 918.457031 744.027344 919.449219 737.882812 921.429688 733.523438 C 923.941406 727.839844 929.558594 720.441406 938.28125 711.320312 L 989.820312 779.707031 Z M 848.878906 652.25 L 704.378906 652.25 L 704.378906 673.859375 L 812.410156 673.859375 L 800.316406 705.570312 L 800.316406 848.6875 L 823.113281 848.6875 L 823.113281 694.472656 C 823.113281 681.390625 826.808594 673.925781 834.214844 672.074219 L 848.878906 668.503906 Z M 657.796875 791.796875 L 657.796875 652.25 L 566.214844 652.25 C 561.460938 652.25 555.710938 654.5 548.972656 658.988281 L 526.773438 673.859375 L 524.789062 673.859375 L 518.644531 652.25 L 477.015625 652.25 L 477.015625 674.054688 L 500.011719 674.054688 C 503.050781 685.289062 504.570312 691.894531 504.570312 693.878906 L 504.570312 848.6875 L 527.367188 848.6875 L 527.367188 697.839844 C 527.367188 692.558594 530.007812 687.929688 535.292969 683.964844 C 544.410156 677.226562 555.777344 673.859375 569.390625 673.859375 L 635.199219 673.859375 L 635.199219 791.601562 C 635.199219 815.257812 623.832031 827.082031 601.105469 827.082031 L 571.765625 827.082031 L 571.765625 848.6875 L 608.042969 848.6875 C 620.726562 848.6875 631.5625 844.792969 640.550781 836.992188 C 652.046875 826.953125 657.796875 811.886719 657.796875 791.796875 M 406.648438 848.6875 L 429.445312 848.6875 L 429.445312 652.25 L 275.027344 652.25 L 275.027344 673.859375 L 406.648438 673.859375 Z M 284.742188 728.960938 L 279.785156 771.976562 L 279.785156 848.6875 L 302.582031 848.6875 L 302.582031 728.960938 Z M 284.742188 728.960938 "/>
<path fill-rule="nonzero" fill="rgb(94.509888%, 68.62793%, 47.058105%)" fill-opacity="1" d="M 880.503906 282.105469 L 880.503906 345.96875 C 880.503906 349.578125 881.941406 352.9375 884.554688 355.429688 C 887.164062 357.921875 890.59375 359.207031 894.21875 359.027344 C 901.078125 358.707031 906.65625 352.589844 906.65625 345.398438 L 906.65625 295.183594 C 906.65625 287.972656 900.792969 282.105469 893.582031 282.105469 Z M 686.601562 450.878906 Z M 1093.367188 444 C 1085.414062 444 1078.941406 450.46875 1078.941406 458.421875 L 1078.941406 468.300781 C 1078.941406 476.253906 1085.414062 482.722656 1093.367188 482.722656 L 1119.015625 482.722656 C 1126.96875 482.722656 1133.4375 476.253906 1133.4375 468.300781 L 1133.4375 444 Z M 1645.480469 551.609375 L 1213.84375 551.609375 C 1197.980469 551.609375 1185.078125 538.703125 1185.078125 522.84375 L 1185.078125 461.28125 C 1185.078125 451.753906 1177.324219 444 1167.796875 444 L 1147.78125 444 L 1147.78125 468.300781 C 1147.78125 484.160156 1134.875 497.066406 1119.015625 497.066406 L 1093.367188 497.066406 C 1077.503906 497.066406 1064.601562 484.160156 1064.601562 468.300781 L 1064.601562 458.421875 C 1064.601562 442.5625 1077.503906 429.65625 1093.367188 429.65625 L 1133.4375 429.65625 L 1133.4375 234.710938 C 1133.4375 229.886719 1132.230469 228.707031 1121.679688 223.25 C 1120.195312 222.480469 1118.625 221.667969 1116.96875 220.78125 C 1116.894531 220.742188 1116.820312 220.699219 1116.75 220.65625 L 891.839844 89.617188 C 885.449219 90.46875 880.503906 95.957031 880.503906 102.578125 L 880.503906 267.761719 L 893.582031 267.761719 C 908.699219 267.761719 921 280.0625 921 295.183594 L 921 345.398438 C 921 360.386719 909.53125 372.667969 894.894531 373.355469 C 887.335938 373.710938 880.128906 371.03125 874.65625 365.808594 C 869.175781 360.585938 866.160156 353.535156 866.160156 345.96875 L 866.160156 282.105469 L 837.273438 282.105469 C 830.0625 282.105469 824.199219 287.972656 824.199219 295.183594 L 824.199219 524.1875 C 824.199219 539.304688 811.898438 551.605469 796.777344 551.605469 L 785.246094 551.605469 L 765.53125 551.480469 L 739.253906 551.480469 C 723.554688 551.480469 710.785156 538.710938 710.785156 523.011719 L 710.785156 456.835938 C 710.785156 453.492188 713.09375 450.59375 716.351562 449.84375 C 737.484375 445 739.851562 395.261719 739.015625 378.21875 C 733.1875 274.007812 712.054688 246.050781 701.695312 245.832031 C 701.652344 245.832031 701.605469 245.832031 701.5625 245.832031 C 690.792969 245.832031 673.042969 273.320312 667.011719 334.828125 C 661.199219 394.140625 667.464844 422.921875 673.75 436.621094 C 679.433594 449.023438 685.644531 450.667969 686.765625 450.863281 C 688.703125 450.722656 690.308594 451.402344 691.765625 452.722656 C 693.265625 454.082031 693.773438 456.027344 693.773438 458.050781 L 693.773438 521.25 C 693.773438 537.988281 680.152344 551.609375 663.414062 551.609375 L 274.519531 551.609375 C 270.5625 551.609375 267.351562 548.398438 267.351562 544.4375 C 267.351562 540.476562 270.5625 537.265625 274.519531 537.265625 L 663.414062 537.265625 C 672.246094 537.265625 679.429688 530.082031 679.429688 521.25 L 679.429688 463.492188 C 676.4375 462.175781 672.828125 459.871094 669.164062 455.828125 C 652.140625 437.058594 646.617188 395.878906 652.738281 333.429688 C 655.628906 303.9375 661.507812 278.816406 669.738281 260.777344 C 680.929688 236.25 693.464844 231.316406 701.996094 231.492188 C 715.722656 231.78125 727.15625 244.585938 735.980469 269.550781 C 744.90625 294.792969 750.746094 331.097656 753.339844 377.464844 C 753.378906 378.277344 754.222656 396.421875 751.046875 415.78125 C 746.980469 440.582031 738.273438 456.078125 725.125 461.964844 L 725.125 523.011719 C 725.125 530.800781 731.460938 537.140625 739.253906 537.140625 L 765.574219 537.140625 L 785.292969 537.261719 L 796.777344 537.261719 C 803.988281 537.261719 809.855469 531.398438 809.855469 524.1875 L 809.855469 295.183594 C 809.855469 280.0625 822.15625 267.761719 837.273438 267.761719 L 866.160156 267.761719 L 866.160156 102.578125 C 866.160156 87.460938 878.460938 75.15625 893.582031 75.15625 C 894.847656 75.15625 896.09375 75.496094 897.191406 76.132812 L 1123.855469 208.199219 C 1125.40625 209.03125 1126.878906 209.792969 1128.269531 210.511719 C 1138.300781 215.703125 1147.78125 220.605469 1147.78125 234.710938 L 1147.78125 429.65625 L 1167.796875 429.65625 C 1185.234375 429.65625 1199.417969 443.84375 1199.417969 461.28125 L 1199.417969 522.84375 C 1199.417969 530.796875 1205.890625 537.265625 1213.84375 537.265625 L 1645.480469 537.265625 C 1649.4375 537.265625 1652.648438 540.476562 1652.648438 544.4375 C 1652.648438 548.398438 1649.4375 551.609375 1645.480469 551.609375 "/>
<path fill-rule="nonzero" fill="rgb(94.509888%, 68.62793%, 47.058105%)" fill-opacity="1" d="M 578.609375 953.25 L 274.523438 953.25 C 270.5625 953.25 267.351562 950.039062 267.351562 946.078125 C 267.351562 942.117188 270.5625 938.90625 274.523438 938.90625 L 578.609375 938.90625 C 582.570312 938.90625 585.78125 942.117188 585.78125 946.078125 C 585.78125 950.039062 582.570312 953.25 578.609375 953.25 "/>
<path fill-rule="nonzero" fill="rgb(4.705811%, 10.980225%, 16.078186%)" fill-opacity="1" d="M 1611.59375 995.695312 L 1601.304688 995.695312 L 1601.304688 951.078125 L 1603.070312 939.199219 L 1611.59375 939.199219 Z M 1649.335938 938.027344 C 1649.335938 943.945312 1648.492188 948.746094 1646.804688 952.429688 C 1645.199219 955.878906 1642.179688 959.71875 1637.753906 963.949219 L 1626.171875 975.003906 L 1623.054688 975.0625 L 1623.054688 965.183594 L 1632.050781 956.25 C 1635.105469 953.191406 1637.066406 950.527344 1637.929688 948.253906 C 1638.671875 946.253906 1639.046875 943.0625 1639.046875 938.671875 L 1639.046875 926.679688 L 1599.1875 926.679688 L 1599.1875 916.742188 L 1649.335938 916.742188 Z M 1584.507812 975.003906 L 1574.222656 975.003906 L 1574.222656 934.203125 C 1574.222656 929.1875 1571.65625 926.679688 1566.519531 926.679688 L 1543.296875 926.679688 L 1543.296875 916.742188 L 1568.105469 916.742188 C 1579.042969 916.742188 1584.507812 921.917969 1584.507812 932.261719 Z M 1492.640625 995.695312 L 1482.351562 995.695312 L 1482.351562 951.078125 L 1484.117188 939.199219 L 1492.640625 939.199219 Z M 1530.382812 938.027344 C 1530.382812 943.945312 1529.539062 948.746094 1527.851562 952.429688 C 1526.246094 955.878906 1523.226562 959.71875 1518.800781 963.949219 L 1507.21875 975.003906 L 1504.101562 975.0625 L 1504.101562 965.183594 L 1513.097656 956.25 C 1516.15625 953.191406 1518.113281 950.527344 1518.976562 948.253906 C 1519.71875 946.253906 1520.09375 943.0625 1520.09375 938.671875 L 1520.09375 926.679688 L 1480.234375 926.679688 L 1480.234375 916.742188 L 1530.382812 916.742188 Z M 1465.28125 955.484375 C 1465.28125 961.480469 1463.183594 966.382812 1458.992188 970.183594 C 1455.503906 973.398438 1451.820312 975.003906 1447.9375 975.003906 L 1415.546875 975.003906 L 1415.546875 965.066406 L 1430.949219 965.066406 L 1430.949219 963.480469 L 1426.539062 955.957031 L 1420.484375 919.625 L 1420.484375 916.742188 L 1430.773438 916.742188 L 1437.828125 965.066406 L 1446.585938 965.066406 C 1452.191406 965.066406 1454.992188 962.070312 1454.992188 956.074219 L 1454.992188 916.742188 L 1465.28125 916.742188 Z M 1404.128906 975.003906 L 1393.84375 975.003906 L 1393.84375 926.679688 L 1384.199219 926.679688 L 1384.199219 916.742188 L 1404.128906 916.742188 Z M 1370.957031 916.742188 L 1370.957031 975.003906 L 1360.726562 975.003906 L 1360.726562 926.679688 L 1335.152344 926.679688 L 1336.917969 962.480469 L 1336.917969 975.003906 L 1316.753906 975.003906 L 1316.753906 965.066406 L 1326.863281 965.066406 L 1325.453125 933.675781 L 1328.511719 928.207031 L 1328.511719 926.855469 L 1321.21875 925.386719 L 1321.21875 916.742188 Z M 1286.375 975.003906 L 1241.226562 975.003906 L 1241.226562 965.066406 L 1265.210938 965.066406 C 1267.640625 965.066406 1269.335938 964.53125 1270.296875 963.453125 C 1271.257812 962.375 1271.738281 960.40625 1271.738281 957.542969 L 1271.738281 926.679688 L 1242.636719 926.679688 L 1242.636719 916.742188 L 1282.023438 916.742188 L 1282.023438 952.78125 C 1282.023438 954.152344 1281.417969 956.054688 1280.203125 958.484375 L 1277.5 963.890625 L 1277.5 965.066406 L 1286.375 965.066406 Z M 1192.332031 940.375 L 1192.332031 975.003906 L 1182.101562 975.003906 L 1182.101562 952.25 L 1183.574219 940.375 Z M 1227.371094 916.742188 L 1227.371094 975.003906 L 1217.082031 975.003906 L 1217.082031 926.679688 L 1181.101562 926.679688 L 1181.101562 916.742188 Z M 1165.4375 953.132812 C 1165.4375 959.71875 1163.28125 965.125 1158.972656 969.359375 C 1155.089844 973.121094 1150.703125 975.003906 1145.804688 975.003906 L 1106.414062 975.003906 L 1106.414062 916.742188 L 1116.703125 916.742188 L 1116.703125 965.183594 L 1130.460938 965.183594 L 1130.460938 916.742188 L 1140.511719 916.742188 L 1140.511719 954.957031 L 1136.574219 963.832031 L 1136.574219 965.183594 L 1144.390625 965.183594 C 1151.601562 965.183594 1155.210938 961.558594 1155.210938 954.308594 L 1155.210938 916.742188 L 1165.4375 916.742188 Z M 1051.933594 995.695312 L 1041.644531 995.695312 L 1041.644531 951.078125 L 1043.410156 939.199219 L 1051.933594 939.199219 Z M 1089.675781 938.027344 C 1089.675781 943.945312 1088.832031 948.746094 1087.148438 952.429688 C 1085.542969 955.878906 1082.523438 959.71875 1078.09375 963.949219 L 1066.515625 975.003906 L 1063.398438 975.0625 L 1063.398438 965.183594 L 1072.394531 956.25 C 1075.449219 953.191406 1077.410156 950.527344 1078.269531 948.253906 C 1079.015625 946.253906 1079.386719 943.0625 1079.386719 938.671875 L 1079.386719 926.679688 L 1039.53125 926.679688 L 1039.53125 916.742188 L 1089.675781 916.742188 Z M 1024.578125 955.484375 C 1024.578125 961.480469 1022.476562 966.382812 1018.285156 970.183594 C 1014.796875 973.398438 1011.113281 975.003906 1007.234375 975.003906 L 974.839844 975.003906 L 974.839844 965.066406 L 990.242188 965.066406 L 990.242188 963.480469 L 985.835938 955.957031 L 979.78125 919.625 L 979.78125 916.742188 L 990.066406 916.742188 L 997.121094 965.066406 L 1005.882812 965.066406 C 1011.484375 965.066406 1014.289062 962.070312 1014.289062 956.074219 L 1014.289062 916.742188 L 1024.578125 916.742188 Z M 928.300781 940.375 L 928.300781 975.003906 L 918.070312 975.003906 L 918.070312 952.25 L 919.539062 940.375 Z M 963.335938 916.742188 L 963.335938 975.003906 L 953.046875 975.003906 L 953.046875 926.679688 L 917.070312 926.679688 L 917.070312 916.742188 Z M 882.871094 975.003906 L 837.722656 975.003906 L 837.722656 965.066406 L 861.707031 965.066406 C 864.136719 965.066406 865.832031 964.53125 866.792969 963.453125 C 867.753906 962.375 868.234375 960.40625 868.234375 957.542969 L 868.234375 926.679688 L 839.132812 926.679688 L 839.132812 916.742188 L 878.519531 916.742188 L 878.519531 952.78125 C 878.519531 954.152344 877.914062 956.054688 876.699219 958.484375 L 873.996094 963.890625 L 873.996094 965.066406 L 882.871094 965.066406 Z M 823.957031 955.484375 C 823.957031 961.480469 821.863281 966.382812 817.667969 970.183594 C 814.179688 973.398438 810.496094 975.003906 806.617188 975.003906 L 775.753906 975.003906 L 775.753906 916.742188 L 786.039062 916.742188 L 786.039062 965.246094 L 805.207031 965.246094 C 810.847656 965.246094 813.671875 962.246094 813.671875 956.25 L 813.671875 925.328125 L 812.082031 925.328125 L 801.207031 938.140625 L 797.386719 938.140625 L 797.386719 928.148438 L 805.851562 918.566406 C 806.871094 917.351562 808.144531 916.742188 809.671875 916.742188 L 823.957031 916.742188 Z M 758.457031 975.003906 L 748.167969 975.003906 L 748.167969 926.679688 L 738.527344 926.679688 L 738.527344 916.742188 L 758.457031 916.742188 Z M 725.253906 916.742188 L 725.253906 975.003906 L 714.964844 975.003906 L 714.964844 926.679688 L 688.628906 926.679688 L 688.628906 975.003906 L 678.339844 975.003906 L 678.339844 934.261719 L 681.75 928.148438 L 681.75 926.855469 L 675.519531 925.386719 L 675.519531 916.742188 Z M 625.449219 940.375 L 625.449219 975.003906 L 615.21875 975.003906 L 615.21875 952.25 L 616.6875 940.375 Z M 660.488281 916.742188 L 660.488281 975.003906 L 650.199219 975.003906 L 650.199219 926.679688 L 614.21875 926.679688 L 614.21875 916.742188 Z M 660.488281 916.742188 "/>
</svg>
